<svg xmlns="http://www.w3.org/2000/svg" width="100" height="100" viewBox="0 0 100 100" fill="none">
  <rect width="100" height="100" rx="10" fill="#F0F0F0"/>
  <path d="M25 20C25 14.4772 29.4772 10 35 10H65C70.5228 10 75 14.4772 75 20V80C75 85.5228 70.5228 90 65 90H35C29.4772 90 25 85.5228 25 80V20Z" fill="#0066CC"/>
  <path d="M35 25H65V75H35V25Z" fill="#FFFFFF"/>
  <path d="M40 30C40 28.3431 41.3431 27 43 27H57C58.6569 27 60 28.3431 60 30V40C60 41.6569 58.6569 43 57 43H43C41.3431 43 40 41.6569 40 40V30Z" fill="#0066CC"/>
  <path d="M40 50C40 48.3431 41.3431 47 43 47H57C58.6569 47 60 48.3431 60 50V60C60 61.6569 58.6569 63 57 63H43C41.3431 63 40 61.6569 40 60V50Z" fill="#0066CC"/>
  <path d="M40 70C40 68.3431 41.3431 67 43 67H57C58.6569 67 60 68.3431 60 70C60 71.6569 58.6569 73 57 73H43C41.3431 73 40 71.6569 40 70Z" fill="#0066CC"/>
</svg>